<svg width="15" height="15" fill="none" xmlns="http://www.w3.org/2000/svg"><path d="M5.258 11.605l-.055-.054c-.027 0-.055-.028-.11-.028-.109 0-.136.055-.136.11 0 .082.027.11.137.11.11 0 .164-.056.164-.138zm-.848-.109c0-.055.055-.082.164-.055.082.028.11.055.11.11 0 .054-.028.082-.055.082-.055.027-.082.027-.11 0-.054 0-.082-.027-.109-.055-.027-.027-.027-.055 0-.082zm1.203-.055c.082 0 .137.028.137.082 0 .055-.027.11-.11.137h-.109c-.027 0-.054-.055-.054-.11 0-.054.027-.081.136-.109zM7.418.97c1.23 0 2.379.3 3.445.875 1.04.601 1.887 1.394 2.489 2.379a6.75 6.75 0 01.93 3.418 6.876 6.876 0 01-1.286 4.074c-.848 1.203-1.941 2.023-3.309 2.46-.164.055-.273.028-.355-.054-.082-.055-.11-.164-.11-.273V11.55c0-.574-.163-.985-.464-1.258.656-.055 1.176-.164 1.504-.273.492-.165.902-.438 1.175-.82.301-.466.465-1.122.465-1.942 0-.328-.082-.63-.191-.903a5.63 5.63 0 00-.52-.683 3.02 3.02 0 00.137-.656c0-.383-.055-.793-.191-1.204-.192-.054-.438 0-.766.11-.219.11-.492.219-.766.383l-.355.246a6.292 6.292 0 00-1.75-.246c-.602 0-1.148.082-1.695.246l-.356-.246c-.3-.164-.574-.274-.793-.383-.328-.11-.574-.164-.738-.11-.164.41-.246.82-.191 1.204 0 .273.027.464.109.629a4.402 4.402 0 00-.492.765c-.11.219-.137.52-.137.848 0 .82.137 1.476.438 1.914.246.383.628.683 1.148.848.328.109.82.218 1.477.273-.247.219-.383.547-.438.93-.328.164-.629.218-.902.164-.492-.028-.848-.274-1.094-.739a1.888 1.888 0 00-.438-.492c-.136-.054-.273-.136-.41-.191l-.191-.027c-.219 0-.328.054-.328.109s.027.137.136.191l.137.11c.11.082.246.191.383.355.11.137.191.274.273.438l.11.218a.99.99 0 00.52.63c.218.136.464.218.792.245.22.028.438.028.684-.027l.3-.027.028 1.668a.337.337 0 01-.137.273c-.082.082-.191.11-.328.055a6.33 6.33 0 01-3.363-2.461C1.129 10.512.719 9.172.719 7.64c0-1.23.273-2.352.875-3.391A6.354 6.354 0 014 1.844C5.012 1.27 6.16.969 7.418.969zm-4.047 9.433c.027-.027.082-.027.137.028.054.054.054.11.027.136-.055.055-.082.028-.137-.027-.054-.055-.082-.082-.027-.137zm-.3-.218c.027-.028.081-.028.136 0 .055.027.055.054.055.109-.028.055-.082.055-.137 0-.055-.027-.082-.055-.055-.11zm.902.957h.082c.027 0 .054.027.082.054.027.028.054.055.054.082v.082c-.054.055-.136.055-.191-.027-.055-.027-.055-.055-.055-.11 0-.027 0-.054.028-.081zm-.328-.383h.082c.027 0 .054.027.082.055.054.082.054.136 0 .164-.028.027-.055.027-.082 0-.028 0-.055-.028-.082-.055-.055-.082-.055-.137 0-.164z" fill="#fff"/></svg>