<svg width="13" height="13" fill="none" xmlns="http://www.w3.org/2000/svg"><path d="M6.5 3.605c.547 0 1.066.165 1.559.438a2.9 2.9 0 011.148 1.148c.273.493.438 1.012.438 1.559 0 .574-.165 1.094-.438 1.586a2.9 2.9 0 01-1.148 1.148 3.163 3.163 0 01-1.559.41 3.19 3.19 0 01-1.586-.41 2.9 2.9 0 01-1.148-1.148 3.19 3.19 0 01-.41-1.586c0-.547.136-1.066.41-1.559a2.9 2.9 0 011.148-1.148c.492-.273 1.012-.438 1.586-.438zm0 5.196c.547 0 1.04-.192 1.45-.602.382-.383.6-.875.6-1.449 0-.547-.218-1.04-.6-1.45-.41-.382-.903-.6-1.45-.6-.574 0-1.066.218-1.45.6-.41.41-.6.903-.6 1.45 0 .574.19 1.066.6 1.45.384.41.876.6 1.45.6zm4.02-5.332c0-.192-.082-.356-.22-.52-.163-.136-.327-.219-.519-.219a.7.7 0 00-.52.22.683.683 0 00-.218.519c0 .219.055.383.219.52.136.163.3.218.52.218a.594.594 0 00.491-.219.846.846 0 00.247-.52zm2.078.738c0 .52.027 1.367.027 2.543 0 1.203-.027 2.05-.055 2.57a5.96 5.96 0 01-.218 1.34 3.24 3.24 0 01-.766 1.203 3.297 3.297 0 01-1.176.739c-.383.136-.848.218-1.367.246-.52.027-1.367.027-2.543.027-1.203 0-2.05 0-2.57-.027-.52-.028-.957-.11-1.34-.274a2.822 2.822 0 01-1.203-.71 3.182 3.182 0 01-.739-1.204 4.684 4.684 0 01-.246-1.34C.375 8.8.375 7.953.375 6.75c0-1.176 0-2.023.027-2.543.028-.52.11-.984.246-1.367.164-.438.41-.848.739-1.176A3.24 3.24 0 012.59.898C2.973.79 3.41.707 3.93.68 4.45.652 5.297.625 6.5.625c1.176 0 2.023.027 2.543.055.52.027.984.11 1.367.218.438.164.848.438 1.176.766.328.328.601.738.766 1.176.109.383.191.848.246 1.367zm-1.313 6.152c.11-.3.164-.793.219-1.476 0-.383.027-.957.027-1.695v-.875c0-.739-.027-1.313-.027-1.696-.055-.683-.11-1.176-.219-1.476a2.074 2.074 0 00-1.176-1.176c-.3-.11-.793-.164-1.476-.219-.41 0-.985-.027-1.695-.027h-.875c-.739 0-1.313.027-1.696.027-.683.055-1.176.11-1.476.219-.575.219-.957.629-1.176 1.176-.11.3-.192.793-.219 1.476-.027.41-.027.985-.027 1.696v.875c0 .738 0 1.312.027 1.695.027.683.11 1.176.219 1.476.219.575.629.957 1.176 1.176.3.11.793.192 1.476.219.383.027.957.027 1.696.027h.875c.738 0 1.312 0 1.695-.027.683-.027 1.176-.11 1.476-.219a2.074 2.074 0 001.176-1.176z" fill="#fff"/></svg>